<svg width="32" height="32" viewBox="0 0 32 32" fill="none" xmlns="http://www.w3.org/2000/svg">
<rect width="32" height="32" rx="10" fill="url(#paint0_linear_6920_4830)"/>
<path d="M24.317 8.15606C22.7873 7.45418 21.147 6.93706 19.4319 6.64089C19.4007 6.63517 19.3695 6.64946 19.3534 6.67803C19.1424 7.05324 18.9087 7.54274 18.7451 7.92749C16.9004 7.65132 15.0652 7.65132 13.2583 7.92749C13.0946 7.53419 12.8525 7.05324 12.6406 6.67803C12.6245 6.65041 12.5933 6.63613 12.562 6.64089C10.8479 6.93612 9.20756 7.45323 7.67693 8.15606C7.66368 8.16177 7.65233 8.17131 7.64479 8.18368C4.53339 12.832 3.68105 17.3661 4.09918 21.844C4.10107 21.8659 4.11337 21.8869 4.1304 21.9002C6.18321 23.4078 8.17171 24.323 10.1233 24.9296C10.1545 24.9391 10.1876 24.9277 10.2075 24.902C10.6691 24.2716 11.0806 23.6068 11.4335 22.9078C11.4543 22.8668 11.4344 22.8183 11.3919 22.8021C10.7391 22.5545 10.1176 22.2526 9.51973 21.9098C9.47244 21.8821 9.46865 21.8145 9.51216 21.7821C9.63797 21.6878 9.76382 21.5897 9.88396 21.4907C9.90569 21.4726 9.93598 21.4688 9.96153 21.4802C13.8893 23.2735 18.1415 23.2735 22.023 21.4802C22.0485 21.4678 22.0788 21.4717 22.1015 21.4898C22.2216 21.5888 22.3475 21.6878 22.4742 21.7821C22.5177 21.8145 22.5149 21.8821 22.4676 21.9098C21.8697 22.2592 21.2482 22.5545 20.5945 22.8011C20.552 22.8173 20.533 22.8668 20.5538 22.9078C20.9143 23.6058 21.3258 24.2706 21.7789 24.901C21.7978 24.9277 21.8319 24.9391 21.8631 24.9296C23.8241 24.323 25.8126 23.4078 27.8654 21.9002C27.8834 21.8869 27.8948 21.8669 27.8967 21.845C28.3971 16.6681 27.0585 12.1711 24.3482 8.18462C24.3416 8.17131 24.3303 8.16177 24.317 8.15606ZM12.02 19.1175C10.8375 19.1175 9.86313 18.0318 9.86313 16.6985C9.86313 15.3653 10.8186 14.2796 12.02 14.2796C13.2309 14.2796 14.1958 15.3748 14.1769 16.6985C14.1769 18.0318 13.2214 19.1175 12.02 19.1175ZM19.9947 19.1175C18.8123 19.1175 17.8379 18.0318 17.8379 16.6985C17.8379 15.3653 18.7933 14.2796 19.9947 14.2796C21.2056 14.2796 22.1705 15.3748 22.1516 16.6985C22.1516 18.0318 21.2056 19.1175 19.9947 19.1175Z" fill="white"/>
<defs>
<linearGradient id="paint0_linear_6920_4830" x1="0" y1="16" x2="32" y2="16" gradientUnits="userSpaceOnUse">
<stop stop-color="#B24592"/>
<stop offset="1" stop-color="#F15F79"/>
</linearGradient>
</defs>
</svg>
